<svg width="13" height="11" viewBox="0 0 13 11" fill="#84c47c" xmlns="http://www.w3.org/2000/svg">
<path d="M12.9412 1.26844C12.4705 1.50998 11.9413 1.63086 11.4118 1.69119C11.9413 1.32878 12.353 0.8457 12.5882 0.181206C12.0588 0.483287 11.5293 0.724825 10.8824 0.845488C10.4117 0.301869 9.70599 0 8.94131 0C7.47071 0 6.29431 1.2079 6.29431 2.71788C6.29431 2.95942 6.29431 3.14063 6.35307 3.32183C4.17655 3.20096 2.23548 2.11393 0.882606 0.483076C0.647368 0.90582 0.529646 1.32856 0.529646 1.87218C0.529646 2.83855 1.00033 3.6237 1.70604 4.10699C1.29432 4.10699 0.882606 3.98612 0.529646 3.74458V3.80491C0.529646 5.13368 1.41205 6.22092 2.6472 6.46246C2.41196 6.52279 2.17652 6.58333 1.94128 6.58333C1.7648 6.58333 1.58832 6.58333 1.4706 6.523C1.82356 7.61024 2.76472 8.3954 3.94111 8.3954C3.05871 9.12022 1.88232 9.54297 0.646956 9.54297C0.411718 9.54297 0.235238 9.54297 0 9.48264C1.1764 10.2678 2.52948 10.6905 4.05883 10.6905C8.9411 10.6905 11.5881 6.58355 11.5881 2.95963V2.59722C12.1765 2.29514 12.5882 1.81206 12.9412 1.26844Z" fill="#84c47c"/>
</svg>
